<svg xmlns="http://www.w3.org/2000/svg" viewBox="0 0 24 24" fill="none" aria-hidden="true">
  <path
    fill="#FFFFFF"
    d="M3.8 13.6c.9-2.2 2.8-3.7 5-4.2.3-1.7 1.4-3.2 3-4 .4-.2.8.1.9.5l.3 1.1c1.8.2 3.3 1.1 4.3 2.4l1.4-.7c.3-.2.7 0 .8.4l.4 1.4c.1.3-.1.6-.4.7l-1.3.4c.4 1.1.4 2.3 0 3.4l1.2.7c.3.2.3.6 0 .8l-1.2 1c-.2.2-.6.1-.8-.1l-1-.9c-1 .8-2.2 1.2-3.5 1.2-.5 0-1-.1-1.4-.2-1.2 1.2-3 1.7-4.7 1.2-.4-.1-.6-.6-.4-1l.8-1.5c-.8-.6-1.4-1.5-1.7-2.5zm7.4-6.2c-1 .7-1.7 1.7-1.9 2.9 1.4.2 2.7.8 3.7 1.7.6-.8 1-1.7 1.1-2.7-1-.8-1.9-1.4-2.9-1.9zm-1.4 9.1c.4.1.9.1 1.3.1 1.1 0 2.1-.3 2.9-.9-.8-.9-1.9-1.4-3.1-1.5-.1.9-.5 1.6-1.1 2.3z"
  />
</svg>
